<?xml version="1.0" encoding="iso-8859-1"?>
<!-- Generator: Adobe Illustrator 19.0.0, SVG Export Plug-In . SVG Version: 6.00 Build 0)  -->
<svg t="1588146146848" class="icon" viewBox="0 0 1024 1024" version="1.1" xmlns="http://www.w3.org/2000/svg" p-id="15628" width="28" height="28"><path d="M901.12 486.4L768 348.16l-56.32 56.32L768 460.8h-204.8V261.12l56.32 56.32 56.32-56.32-138.24-138.24c-15.36-15.36-40.96-15.36-56.32 0L348.16 261.12l56.32 56.32L460.8 256v204.8H256l56.32-56.32-51.2-56.32-138.24 138.24c-5.12 5.12-10.24 15.36-10.24 25.6s5.12 20.48 10.24 25.6l138.24 138.24 56.32-56.32L256 563.2h204.8v204.8l-56.32-56.32L348.16 768l138.24 138.24c5.12 5.12 15.36 10.24 25.6 10.24s20.48-5.12 25.6-10.24l138.24-138.24-56.32-56.32L563.2 768v-204.8h204.8l-56.32 56.32 56.32 56.32 138.24-138.24c10.24-15.36 10.24-35.84-5.12-51.2zM204.8 512z m307.2 307.2z m307.2-307.2z" fill="#993030" p-id="15629"></path></svg>